<?xml version="1.0" standalone="no"?>
<!DOCTYPE svg PUBLIC "-//W3C//DTD SVG 20010904//EN"
 "http://www.w3.org/TR/2001/REC-SVG-20010904/DTD/svg10.dtd">
<svg version="1.0" xmlns="http://www.w3.org/2000/svg"
 width="512.000000pt" height="512.000000pt" viewBox="0 0 512.000000 512.000000"
 preserveAspectRatio="xMidYMid meet">

<g transform="translate(0.000000,512.000000) scale(0.100000,-0.100000)"
fill="#000000" stroke="none">
<path d="M2280 5009 c-562 -68 -1063 -312 -1460 -709 -369 -368 -597 -810
-692 -1337 -20 -113 -23 -160 -23 -403 0 -243 3 -290 23 -403 95 -527 323
-969 692 -1337 368 -369 810 -597 1337 -692 113 -20 160 -23 403 -23 243 0
290 3 403 23 527 95 969 323 1337 692 369 368 597 810 692 1337 20 113 23 160
23 403 0 243 -3 290 -23 403 -95 527 -323 969 -692 1337 -367 367 -812 598
-1331 690 -100 18 -171 23 -369 25 -135 2 -279 -1 -320 -6z m1690 -1200 c70
-33 126 -89 159 -159 l26 -55 0 -1035 0 -1035 -26 -55 c-33 -70 -89 -126 -159
-159 l-55 -26 -1355 0 -1355 0 -55 26 c-71 34 -126 89 -159 158 l-26 56 0
1035 0 1035 26 56 c28 59 84 121 134 147 80 42 51 41 1450 39 l1340 -2 55 -26z"/>
<path d="M1280 2560 l0 -960 160 0 160 0 0 701 c0 557 3 700 13 696 6 -2 222
-138 480 -301 l467 -296 468 296 c257 163 473 299 480 301 9 4 12 -139 12
-696 l0 -701 160 0 160 0 0 960 0 960 -96 0 -96 0 -544 -336 -544 -336 -544
336 -544 336 -96 0 -96 0 0 -960z"/>
</g>
</svg>
